<svg height="512" viewBox="0 0 58 58" width="512" xmlns="http://www.w3.org/2000/svg"><g id="085---Male-User-Cloud-" fill="none"><circle id="Oval" cx="29" cy="29" fill="#3d324c" r="29"/><path id="Shape" d="m15.26 24c-.8424656-2.270388-1.2889489-4.6685447-1.32-7.09 0-6.6 6.2-12.9 13.71-12.9s10.44 5.1 10.44 5.1h.32s6.53.3 6.53 8.7c-.0100465 2.2100266-.5629177 4.3837377-1.61 6.33l-2.33 1.86h-23z" fill="#805333"/><path id="Shape" d="m17.14 24c-.7314647-2.2966872-1.1157057-4.6897671-1.14-7.1 0-6.6 5.38-12.9 11.89-12.9 3.7029191-.05805127 7.1469544 1.89356871 9 5.1h.28s5.66.3 5.66 8.7c.0003328 2.1868257-.4774923 4.347278-1.4 6.33l-2 1.87h-19.91z" fill="#a56a43"/><path id="Shape" d="m40.32 25.81c.1355426-1.1348145 1.1651271-1.9450527 2.3-1.81 1.78-.27 1.53 3.32 1.18 5.06-.2117094 2.1960681-1.6489904 4.0827417-3.71 4.87h-22.3c-2.0580884-.7911584-3.4937549-2.6757125-3.71-4.87-.35-1.75-.59-5.33 1.18-5.06 2.06 0 2.15 1.57 2.15 1.57z" fill="#f9c795"/><path id="Shape" d="m41.32 50.74c-7.6556566 4.3751966-17.0543434 4.3751966-24.71 0 1.5151212-1.1610511 2.9609308-2.4098566 4.33-3.74v-6.68h16v6.68c1.3845912 1.332367 2.8471716 2.581237 4.38 3.74z" fill="#fdd7ad"/><path id="Shape" d="m36.94 40.32v2.8c-2.94 2.88-3.07 5.68-6.3 5.68h-3.4c-3.23 0-3.4-2.76-6.3-5.68v-2.8z" fill="#f9c795"/><path id="Shape" d="m17.33 22.69c.1-2.15 1.77-3.09 4.12-3.09h5.22s6.85-.6 9.79-5.4c0 0 3.22 1.78 3.82 10.91.1 1.57.09 3.17.09 2.9-.2063501.9846294-.3301135 1.9847714-.37 2.99 0 3.09.85 5.73-2.55 8.81s-3.4 6.19-6.81 6.19h-3.4c-3.41 0-3.41-3.08-6.81-6.17-4.05-3.67-2-6.53-2.75-10.92.09.85-.45-4.37-.35-6.22z" fill="#fdd7ad"/><path id="Shape" d="m58 52.08c-.0210764 1.5913442-.6735215 3.1091219-1.8137737 4.2193675-1.1402523 1.1102456-2.6748859 1.7219918-4.2662263 1.7006325h-21.71c-2.8404883.0333551-5.1715846-2.2395756-5.21-5.08.0178004-2.2143601 1.4652329-4.163138 3.58-4.82-.95-4.87 4.34-8.65 8.81-6.34.9258532-3.431072 4.0564369-5.8006071 7.61-5.76 2.5044224-.0461435 4.8727895 1.1366954 6.3403731 3.1665868 1.4675836 2.0298915 1.8484525 4.6496642 1.0196269 7.0134132 3.1341382.1880392 5.5933063 2.7605732 5.64 5.9z" fill="#ecf0f1"/><g fill="#d1d4d1"><path id="Shape" d="m51.92 58h-21.71c-1.5396425.0250232-3.0084766-.6455775-3.9980739-1.8253327s-1.3944289-2.742858-1.1019261-4.2546673c.5204799 2.3954061 2.6487667 4.0980356 5.1 4.08h21.71c2.9340224.0478575 5.472196-2.0334448 6-4.92.2706723 1.7435632-.239828 3.5178814-1.3957121 4.8510011s-2.8399636 2.0898835-4.6042879 2.0689989z"/><path id="Shape" d="m51.19 49.23c-.3842967.002079-.7357863-.2162518-.9042315-.5616711-.1684452-.3454192-.1240415-.7568091.1142315-1.0583289 1.5356379-2.0190969 1.7803137-4.7389061.6296941-6.9996605s-3.4935357-3.6635988-6.0296941-3.6103395c-3.4535412.1134729-6.3158469 2.7132595-6.76 6.14-.0702496.4970163-.498068.8649401-1 .86-.2873798.0020776-.5617624-.1195851-.7531669-.3339581s-.2813271-.5007322-.2468331-.7860419c.5558845-4.4386875 4.2874399-7.7953834 8.76-7.88 3.3046072-.0620455 6.353051 1.773085 7.8447999 4.7224856 1.4917488 2.9494006 1.1634645 6.4924139-.8447999 9.1175144-.193052.2508782-.4934904.3955337-.81.39z"/></g></g></svg>